<mxfile host="app.diagrams.net" agent="Mozilla/5.0 (Windows NT 10.0; Win64; x64) AppleWebKit/537.36 (KHTML, like Gecko) Chrome/131.0.0.0 Safari/537.36 Edg/131.0.0.0" version="26.0.3">
  <diagram name="第 1 页" id="cwpA0sIes2aXeKaWlPrB">
    <mxGraphModel dx="1166" dy="736" grid="1" gridSize="10" guides="1" tooltips="1" connect="1" arrows="1" fold="1" page="1" pageScale="1" pageWidth="827" pageHeight="1169" math="0" shadow="0">
      <root>
        <mxCell id="0" />
        <mxCell id="1" parent="0" />
        <mxCell id="FeioOqglBApDpObzxgHV-1" value="用户" style="shape=umlActor;verticalLabelPosition=bottom;verticalAlign=top;html=1;" vertex="1" parent="1">
          <mxGeometry x="60" y="220" width="30" height="60" as="geometry" />
        </mxCell>
        <mxCell id="FeioOqglBApDpObzxgHV-2" value="微信登录" style="ellipse;whiteSpace=wrap;html=1;" vertex="1" parent="1">
          <mxGeometry x="150" y="30" width="106" height="50" as="geometry" />
        </mxCell>
        <mxCell id="FeioOqglBApDpObzxgHV-8" value="管理员" style="shape=umlActor;verticalLabelPosition=bottom;verticalAlign=top;html=1;" vertex="1" parent="1">
          <mxGeometry x="750" y="185" width="40" height="60" as="geometry" />
        </mxCell>
        <mxCell id="FeioOqglBApDpObzxgHV-9" value="商品浏览" style="ellipse;whiteSpace=wrap;html=1;" vertex="1" parent="1">
          <mxGeometry x="150" y="90" width="106" height="50" as="geometry" />
        </mxCell>
        <mxCell id="FeioOqglBApDpObzxgHV-10" value="购物车管理" style="ellipse;whiteSpace=wrap;html=1;" vertex="1" parent="1">
          <mxGeometry x="150" y="220" width="106" height="50" as="geometry" />
        </mxCell>
        <mxCell id="FeioOqglBApDpObzxgHV-11" value="商品购买" style="ellipse;whiteSpace=wrap;html=1;" vertex="1" parent="1">
          <mxGeometry x="150" y="150" width="106" height="50" as="geometry" />
        </mxCell>
        <mxCell id="FeioOqglBApDpObzxgHV-12" value="地址管理" style="ellipse;whiteSpace=wrap;html=1;" vertex="1" parent="1">
          <mxGeometry x="150" y="340" width="106" height="50" as="geometry" />
        </mxCell>
        <mxCell id="FeioOqglBApDpObzxgHV-13" value="外卖催单" style="ellipse;whiteSpace=wrap;html=1;" vertex="1" parent="1">
          <mxGeometry x="150" y="280" width="106" height="50" as="geometry" />
        </mxCell>
        <mxCell id="FeioOqglBApDpObzxgHV-14" value="费用支付" style="ellipse;whiteSpace=wrap;html=1;" vertex="1" parent="1">
          <mxGeometry x="150" y="460" width="106" height="50" as="geometry" />
        </mxCell>
        <mxCell id="FeioOqglBApDpObzxgHV-15" value="历史订单查看" style="ellipse;whiteSpace=wrap;html=1;" vertex="1" parent="1">
          <mxGeometry x="150" y="400" width="106" height="50" as="geometry" />
        </mxCell>
        <mxCell id="FeioOqglBApDpObzxgHV-18" value="登录" style="ellipse;whiteSpace=wrap;html=1;" vertex="1" parent="1">
          <mxGeometry x="570" y="20" width="106" height="50" as="geometry" />
        </mxCell>
        <mxCell id="FeioOqglBApDpObzxgHV-19" value="分类管理" style="ellipse;whiteSpace=wrap;html=1;" vertex="1" parent="1">
          <mxGeometry x="570" y="100" width="106" height="50" as="geometry" />
        </mxCell>
        <mxCell id="FeioOqglBApDpObzxgHV-20" value="菜品管理" style="ellipse;whiteSpace=wrap;html=1;" vertex="1" parent="1">
          <mxGeometry x="570" y="180" width="106" height="50" as="geometry" />
        </mxCell>
        <mxCell id="FeioOqglBApDpObzxgHV-36" style="edgeStyle=orthogonalEdgeStyle;rounded=0;orthogonalLoop=1;jettySize=auto;html=1;exitX=1;exitY=0.5;exitDx=0;exitDy=0;entryX=0;entryY=0.3333333333333333;entryDx=0;entryDy=0;entryPerimeter=0;" edge="1" parent="1" source="FeioOqglBApDpObzxgHV-21" target="FeioOqglBApDpObzxgHV-8">
          <mxGeometry relative="1" as="geometry">
            <mxPoint x="690" y="250" as="targetPoint" />
          </mxGeometry>
        </mxCell>
        <mxCell id="FeioOqglBApDpObzxgHV-21" value="套餐管理" style="ellipse;whiteSpace=wrap;html=1;" vertex="1" parent="1">
          <mxGeometry x="570" y="260" width="106" height="50" as="geometry" />
        </mxCell>
        <mxCell id="FeioOqglBApDpObzxgHV-22" value="订单管理" style="ellipse;whiteSpace=wrap;html=1;" vertex="1" parent="1">
          <mxGeometry x="570" y="330" width="106" height="50" as="geometry" />
        </mxCell>
        <mxCell id="FeioOqglBApDpObzxgHV-38" style="edgeStyle=orthogonalEdgeStyle;rounded=0;orthogonalLoop=1;jettySize=auto;html=1;exitX=1;exitY=0.5;exitDx=0;exitDy=0;entryX=0;entryY=0.3333333333333333;entryDx=0;entryDy=0;entryPerimeter=0;" edge="1" parent="1" source="FeioOqglBApDpObzxgHV-24" target="FeioOqglBApDpObzxgHV-8">
          <mxGeometry relative="1" as="geometry">
            <mxPoint x="770" y="310" as="targetPoint" />
          </mxGeometry>
        </mxCell>
        <mxCell id="FeioOqglBApDpObzxgHV-24" value="员工管理" style="ellipse;whiteSpace=wrap;html=1;" vertex="1" parent="1">
          <mxGeometry x="570" y="400" width="106" height="50" as="geometry" />
        </mxCell>
        <mxCell id="FeioOqglBApDpObzxgHV-33" style="edgeStyle=orthogonalEdgeStyle;rounded=0;orthogonalLoop=1;jettySize=auto;html=1;exitX=1;exitY=0.5;exitDx=0;exitDy=0;entryX=0;entryY=0.3333333333333333;entryDx=0;entryDy=0;entryPerimeter=0;" edge="1" parent="1" source="FeioOqglBApDpObzxgHV-20" target="FeioOqglBApDpObzxgHV-8">
          <mxGeometry relative="1" as="geometry" />
        </mxCell>
        <mxCell id="FeioOqglBApDpObzxgHV-34" style="edgeStyle=orthogonalEdgeStyle;rounded=0;orthogonalLoop=1;jettySize=auto;html=1;exitX=1;exitY=0.5;exitDx=0;exitDy=0;entryX=0;entryY=0.3333333333333333;entryDx=0;entryDy=0;entryPerimeter=0;" edge="1" parent="1" source="FeioOqglBApDpObzxgHV-19" target="FeioOqglBApDpObzxgHV-8">
          <mxGeometry relative="1" as="geometry" />
        </mxCell>
        <mxCell id="FeioOqglBApDpObzxgHV-35" style="edgeStyle=orthogonalEdgeStyle;rounded=0;orthogonalLoop=1;jettySize=auto;html=1;exitX=1;exitY=0.5;exitDx=0;exitDy=0;entryX=0;entryY=0.3333333333333333;entryDx=0;entryDy=0;entryPerimeter=0;" edge="1" parent="1" source="FeioOqglBApDpObzxgHV-18" target="FeioOqglBApDpObzxgHV-8">
          <mxGeometry relative="1" as="geometry" />
        </mxCell>
        <mxCell id="FeioOqglBApDpObzxgHV-37" style="edgeStyle=orthogonalEdgeStyle;rounded=0;orthogonalLoop=1;jettySize=auto;html=1;exitX=1;exitY=0.5;exitDx=0;exitDy=0;entryX=0;entryY=0.3333333333333333;entryDx=0;entryDy=0;entryPerimeter=0;" edge="1" parent="1" source="FeioOqglBApDpObzxgHV-22" target="FeioOqglBApDpObzxgHV-8">
          <mxGeometry relative="1" as="geometry" />
        </mxCell>
        <mxCell id="FeioOqglBApDpObzxgHV-52" value="员工" style="shape=umlActor;verticalLabelPosition=bottom;verticalAlign=top;html=1;" vertex="1" parent="1">
          <mxGeometry x="340" y="715" width="40" height="60" as="geometry" />
        </mxCell>
        <mxCell id="FeioOqglBApDpObzxgHV-53" value="登录" style="ellipse;whiteSpace=wrap;html=1;" vertex="1" parent="1">
          <mxGeometry x="160" y="550" width="106" height="50" as="geometry" />
        </mxCell>
        <mxCell id="FeioOqglBApDpObzxgHV-54" value="分类管理" style="ellipse;whiteSpace=wrap;html=1;" vertex="1" parent="1">
          <mxGeometry x="160" y="630" width="106" height="50" as="geometry" />
        </mxCell>
        <mxCell id="FeioOqglBApDpObzxgHV-55" value="菜品管理" style="ellipse;whiteSpace=wrap;html=1;" vertex="1" parent="1">
          <mxGeometry x="160" y="710" width="106" height="50" as="geometry" />
        </mxCell>
        <mxCell id="FeioOqglBApDpObzxgHV-56" style="edgeStyle=orthogonalEdgeStyle;rounded=0;orthogonalLoop=1;jettySize=auto;html=1;exitX=1;exitY=0.5;exitDx=0;exitDy=0;entryX=0;entryY=0.3333333333333333;entryDx=0;entryDy=0;entryPerimeter=0;" edge="1" parent="1" source="FeioOqglBApDpObzxgHV-57" target="FeioOqglBApDpObzxgHV-52">
          <mxGeometry relative="1" as="geometry">
            <mxPoint x="280" y="780" as="targetPoint" />
          </mxGeometry>
        </mxCell>
        <mxCell id="FeioOqglBApDpObzxgHV-57" value="套餐管理" style="ellipse;whiteSpace=wrap;html=1;" vertex="1" parent="1">
          <mxGeometry x="160" y="790" width="106" height="50" as="geometry" />
        </mxCell>
        <mxCell id="FeioOqglBApDpObzxgHV-58" value="订单管理" style="ellipse;whiteSpace=wrap;html=1;" vertex="1" parent="1">
          <mxGeometry x="160" y="860" width="106" height="50" as="geometry" />
        </mxCell>
        <mxCell id="FeioOqglBApDpObzxgHV-61" style="edgeStyle=orthogonalEdgeStyle;rounded=0;orthogonalLoop=1;jettySize=auto;html=1;exitX=1;exitY=0.5;exitDx=0;exitDy=0;entryX=0;entryY=0.3333333333333333;entryDx=0;entryDy=0;entryPerimeter=0;" edge="1" parent="1" source="FeioOqglBApDpObzxgHV-55" target="FeioOqglBApDpObzxgHV-52">
          <mxGeometry relative="1" as="geometry" />
        </mxCell>
        <mxCell id="FeioOqglBApDpObzxgHV-62" style="edgeStyle=orthogonalEdgeStyle;rounded=0;orthogonalLoop=1;jettySize=auto;html=1;exitX=1;exitY=0.5;exitDx=0;exitDy=0;entryX=0;entryY=0.3333333333333333;entryDx=0;entryDy=0;entryPerimeter=0;" edge="1" parent="1" source="FeioOqglBApDpObzxgHV-54" target="FeioOqglBApDpObzxgHV-52">
          <mxGeometry relative="1" as="geometry" />
        </mxCell>
        <mxCell id="FeioOqglBApDpObzxgHV-63" style="edgeStyle=orthogonalEdgeStyle;rounded=0;orthogonalLoop=1;jettySize=auto;html=1;exitX=1;exitY=0.5;exitDx=0;exitDy=0;entryX=0;entryY=0.3333333333333333;entryDx=0;entryDy=0;entryPerimeter=0;" edge="1" parent="1" source="FeioOqglBApDpObzxgHV-53" target="FeioOqglBApDpObzxgHV-52">
          <mxGeometry relative="1" as="geometry" />
        </mxCell>
        <mxCell id="FeioOqglBApDpObzxgHV-64" style="edgeStyle=orthogonalEdgeStyle;rounded=0;orthogonalLoop=1;jettySize=auto;html=1;exitX=1;exitY=0.5;exitDx=0;exitDy=0;entryX=0;entryY=0.3333333333333333;entryDx=0;entryDy=0;entryPerimeter=0;" edge="1" parent="1" source="FeioOqglBApDpObzxgHV-58" target="FeioOqglBApDpObzxgHV-52">
          <mxGeometry relative="1" as="geometry" />
        </mxCell>
        <mxCell id="FeioOqglBApDpObzxgHV-65" style="edgeStyle=orthogonalEdgeStyle;rounded=0;orthogonalLoop=1;jettySize=auto;html=1;exitX=0;exitY=0.5;exitDx=0;exitDy=0;entryX=1;entryY=0.3333333333333333;entryDx=0;entryDy=0;entryPerimeter=0;" edge="1" parent="1" source="FeioOqglBApDpObzxgHV-2" target="FeioOqglBApDpObzxgHV-1">
          <mxGeometry relative="1" as="geometry" />
        </mxCell>
        <mxCell id="FeioOqglBApDpObzxgHV-67" style="edgeStyle=orthogonalEdgeStyle;rounded=0;orthogonalLoop=1;jettySize=auto;html=1;exitX=0;exitY=0.5;exitDx=0;exitDy=0;entryX=1;entryY=0.3333333333333333;entryDx=0;entryDy=0;entryPerimeter=0;" edge="1" parent="1" source="FeioOqglBApDpObzxgHV-11" target="FeioOqglBApDpObzxgHV-1">
          <mxGeometry relative="1" as="geometry" />
        </mxCell>
        <mxCell id="FeioOqglBApDpObzxgHV-68" style="edgeStyle=orthogonalEdgeStyle;rounded=0;orthogonalLoop=1;jettySize=auto;html=1;exitX=0;exitY=0.5;exitDx=0;exitDy=0;entryX=1;entryY=0.3333333333333333;entryDx=0;entryDy=0;entryPerimeter=0;" edge="1" parent="1" source="FeioOqglBApDpObzxgHV-10" target="FeioOqglBApDpObzxgHV-1">
          <mxGeometry relative="1" as="geometry" />
        </mxCell>
        <mxCell id="FeioOqglBApDpObzxgHV-69" style="edgeStyle=orthogonalEdgeStyle;rounded=0;orthogonalLoop=1;jettySize=auto;html=1;exitX=0;exitY=0.5;exitDx=0;exitDy=0;entryX=1;entryY=0.3333333333333333;entryDx=0;entryDy=0;entryPerimeter=0;" edge="1" parent="1" source="FeioOqglBApDpObzxgHV-13" target="FeioOqglBApDpObzxgHV-1">
          <mxGeometry relative="1" as="geometry" />
        </mxCell>
        <mxCell id="FeioOqglBApDpObzxgHV-70" style="edgeStyle=orthogonalEdgeStyle;rounded=0;orthogonalLoop=1;jettySize=auto;html=1;exitX=0;exitY=0.5;exitDx=0;exitDy=0;entryX=1;entryY=0.3333333333333333;entryDx=0;entryDy=0;entryPerimeter=0;" edge="1" parent="1" source="FeioOqglBApDpObzxgHV-12" target="FeioOqglBApDpObzxgHV-1">
          <mxGeometry relative="1" as="geometry" />
        </mxCell>
        <mxCell id="FeioOqglBApDpObzxgHV-71" style="edgeStyle=orthogonalEdgeStyle;rounded=0;orthogonalLoop=1;jettySize=auto;html=1;exitX=0;exitY=0.5;exitDx=0;exitDy=0;entryX=1;entryY=0.3333333333333333;entryDx=0;entryDy=0;entryPerimeter=0;" edge="1" parent="1" source="FeioOqglBApDpObzxgHV-15" target="FeioOqglBApDpObzxgHV-1">
          <mxGeometry relative="1" as="geometry" />
        </mxCell>
        <mxCell id="FeioOqglBApDpObzxgHV-72" style="edgeStyle=orthogonalEdgeStyle;rounded=0;orthogonalLoop=1;jettySize=auto;html=1;exitX=0;exitY=0.5;exitDx=0;exitDy=0;entryX=1;entryY=0.3333333333333333;entryDx=0;entryDy=0;entryPerimeter=0;" edge="1" parent="1" source="FeioOqglBApDpObzxgHV-14" target="FeioOqglBApDpObzxgHV-1">
          <mxGeometry relative="1" as="geometry" />
        </mxCell>
        <mxCell id="FeioOqglBApDpObzxgHV-73" style="edgeStyle=orthogonalEdgeStyle;rounded=0;orthogonalLoop=1;jettySize=auto;html=1;exitX=0;exitY=0.5;exitDx=0;exitDy=0;entryX=1;entryY=0.3333333333333333;entryDx=0;entryDy=0;entryPerimeter=0;" edge="1" parent="1" source="FeioOqglBApDpObzxgHV-9" target="FeioOqglBApDpObzxgHV-1">
          <mxGeometry relative="1" as="geometry" />
        </mxCell>
      </root>
    </mxGraphModel>
  </diagram>
</mxfile>
